<svg xmlns="http://www.w3.org/2000/svg" xmlns:xlink="http://www.w3.org/1999/xlink" width="342" zoomAndPan="magnify" viewBox="18 162 342 42" height="42" preserveAspectRatio="xMidYMid meet" version="1.0"><defs><g/><clipPath id="ff69753a6b"><rect x="0" width="333" y="0" height="44"/></clipPath></defs><g transform="matrix(1, 0, 0, 1, 25, 165)"><g clip-path="url(#ff69753a6b)"><g fill="#000000" fill-opacity="1"><g transform="translate(1.010397, 32.807216)"><g><path d="M 11.28125 0 L 0.421875 0 L 0.421875 -28.609375 L 9.96875 -28.609375 C 12.144531 -28.609375 13.882812 -28.289062 15.1875 -27.65625 C 16.5 -27.03125 17.445312 -26.164062 18.03125 -25.0625 C 18.613281 -23.96875 18.914062 -22.734375 18.9375 -21.359375 C 18.945312 -20.660156 18.863281 -19.894531 18.6875 -19.0625 C 18.519531 -18.226562 18.195312 -17.453125 17.71875 -16.734375 C 17.25 -16.023438 16.554688 -15.488281 15.640625 -15.125 C 16.804688 -14.851562 17.722656 -14.378906 18.390625 -13.703125 C 19.054688 -13.023438 19.53125 -12.222656 19.8125 -11.296875 C 20.101562 -10.367188 20.25 -9.390625 20.25 -8.359375 C 20.25 -7.367188 20.085938 -6.375 19.765625 -5.375 C 19.453125 -4.382812 18.941406 -3.484375 18.234375 -2.671875 C 17.535156 -1.859375 16.617188 -1.207031 15.484375 -0.71875 C 14.347656 -0.238281 12.945312 0 11.28125 0 Z M 9.015625 -11.3125 L 9.015625 -8.59375 L 10.171875 -8.59375 C 10.679688 -8.59375 11.132812 -8.679688 11.53125 -8.859375 C 11.9375 -9.046875 12.128906 -9.414062 12.109375 -9.96875 C 12.097656 -10.5 11.90625 -10.851562 11.53125 -11.03125 C 11.15625 -11.21875 10.710938 -11.3125 10.203125 -11.3125 Z M 10.421875 -20.015625 L 9.015625 -20.015625 L 9.015625 -18.46875 L 10.390625 -18.46875 C 10.816406 -18.46875 11.09375 -18.546875 11.21875 -18.703125 C 11.351562 -18.867188 11.421875 -19.039062 11.421875 -19.21875 C 11.421875 -19.425781 11.34375 -19.609375 11.1875 -19.765625 C 11.039062 -19.929688 10.785156 -20.015625 10.421875 -20.015625 Z M 10.421875 -20.015625 "/></g></g></g><g fill="#000000" fill-opacity="1"><g transform="translate(29.612819, 32.807216)"><g><path d="M 0.421875 -28.640625 L 9.015625 -28.640625 L 9.015625 -11.40625 C 9.015625 -10.351562 9.070312 -9.546875 9.1875 -8.984375 C 9.300781 -8.429688 9.609375 -8.164062 10.109375 -8.1875 C 10.609375 -8.1875 10.914062 -8.457031 11.03125 -9 C 11.144531 -9.550781 11.203125 -10.351562 11.203125 -11.40625 L 11.203125 -28.640625 L 19.796875 -28.640625 L 19.796875 -7.671875 C 19.796875 -6.128906 19.4375 -4.742188 18.71875 -3.515625 C 18 -2.296875 16.921875 -1.332031 15.484375 -0.625 C 14.054688 0.0703125 12.242188 0.421875 10.046875 0.421875 C 7.910156 0.421875 6.125 0.0703125 4.6875 -0.625 C 3.257812 -1.332031 2.191406 -2.296875 1.484375 -3.515625 C 0.773438 -4.742188 0.421875 -6.128906 0.421875 -7.671875 Z M 0.421875 -28.640625 "/></g></g></g><g fill="#000000" fill-opacity="1"><g transform="translate(57.757215, 32.807216)"><g><path d="M 0.421875 0 L 0.421875 -28.609375 L 9.015625 -28.609375 L 9.015625 0 Z M 0.421875 0 "/></g></g></g><g fill="#000000" fill-opacity="1"><g transform="translate(75.137987, 32.807216)"><g><path d="M 0.421875 -28.609375 L 9.015625 -28.640625 L 9.015625 -8.59375 L 15.78125 -8.59375 L 15.78125 0 L 0.421875 0 Z M 0.421875 -28.609375 "/></g></g></g><g fill="#000000" fill-opacity="1"><g transform="translate(99.274652, 32.807216)"><g><path d="M 9.625 0 L 0.421875 0 L 0.421875 -28.609375 L 9.625 -28.609375 C 11.894531 -28.609375 13.773438 -28.003906 15.265625 -26.796875 C 16.753906 -25.597656 17.863281 -23.925781 18.59375 -21.78125 C 19.332031 -19.632812 19.691406 -17.144531 19.671875 -14.3125 C 19.671875 -11.394531 19.238281 -8.863281 18.375 -6.71875 C 17.519531 -4.570312 16.34375 -2.914062 14.84375 -1.75 C 13.351562 -0.582031 11.613281 0 9.625 0 Z M 9.625 -20.5 L 9 -20.5 L 9 -8.359375 L 9.625 -8.359375 C 9.894531 -8.359375 10.125 -8.578125 10.3125 -9.015625 C 10.5 -9.460938 10.660156 -10.046875 10.796875 -10.765625 C 10.929688 -11.492188 11.019531 -12.285156 11.0625 -13.140625 C 11.113281 -14.003906 11.125 -14.863281 11.09375 -15.71875 C 11.070312 -16.582031 11 -17.375 10.875 -18.09375 C 10.75 -18.820312 10.582031 -19.40625 10.375 -19.84375 C 10.175781 -20.28125 9.925781 -20.5 9.625 -20.5 Z M 9.625 -20.5 "/></g></g></g><g fill="#000000" fill-opacity="1"><g transform="translate(127.30455, 32.807216)"><g><path d="M 0.421875 -28.609375 L 12.96875 -28.609375 L 14.484375 -13.0625 L 16.015625 -28.609375 L 28.546875 -28.609375 L 28.546875 0 L 21.390625 0 L 21.390625 -20.046875 L 19.328125 0 L 9.65625 0 L 7.59375 -20.046875 L 7.59375 0 L 0.421875 0 Z M 0.421875 -28.609375 "/></g></g></g><g fill="#000000" fill-opacity="1"><g transform="translate(164.208717, 32.807216)"><g><path d="M 11.625 -19.8125 L 14.484375 -28.609375 L 23.28125 -28.609375 L 15.921875 -10.140625 L 15.921875 0 L 7.328125 0 L 7.328125 -10.140625 L 0 -28.609375 L 8.796875 -28.609375 Z M 11.625 -19.8125 "/></g></g></g><g fill="#000000" fill-opacity="1"><g transform="translate(195.387542, 32.807216)"><g><path d="M 0.421875 -28.609375 L 9.015625 -28.609375 L 9.015625 -18.59375 L 11.109375 -18.59375 L 11.109375 -28.609375 L 19.703125 -28.609375 L 19.703125 0 L 11.109375 0 L 11.109375 -10 L 9.015625 -10 L 9.015625 0 L 0.421875 0 Z M 0.421875 -28.609375 "/></g></g></g><g fill="#000000" fill-opacity="1"><g transform="translate(223.446052, 32.807216)"><g><path d="M 10.546875 0.421875 C 8.554688 0.421875 6.90625 0.0703125 5.59375 -0.625 C 4.289062 -1.332031 3.257812 -2.332031 2.5 -3.625 C 1.75 -4.925781 1.210938 -6.484375 0.890625 -8.296875 C 0.578125 -10.117188 0.421875 -12.132812 0.421875 -14.34375 C 0.421875 -16.5625 0.578125 -18.566406 0.890625 -20.359375 C 1.210938 -22.160156 1.75 -23.710938 2.5 -25.015625 C 3.257812 -26.328125 4.289062 -27.328125 5.59375 -28.015625 C 6.90625 -28.710938 8.554688 -29.0625 10.546875 -29.0625 C 12.523438 -29.0625 14.164062 -28.710938 15.46875 -28.015625 C 16.78125 -27.328125 17.8125 -26.328125 18.5625 -25.015625 C 19.320312 -23.710938 19.859375 -22.160156 20.171875 -20.359375 C 20.492188 -18.566406 20.65625 -16.5625 20.65625 -14.34375 C 20.65625 -12.132812 20.492188 -10.117188 20.171875 -8.296875 C 19.859375 -6.484375 19.320312 -4.925781 18.5625 -3.625 C 17.8125 -2.332031 16.78125 -1.332031 15.46875 -0.625 C 14.164062 0.0703125 12.523438 0.421875 10.546875 0.421875 Z M 10.546875 -20.359375 C 9.953125 -20.335938 9.546875 -19.773438 9.328125 -18.671875 C 9.117188 -17.566406 9.015625 -16.019531 9.015625 -14.03125 C 9.015625 -12.289062 9.117188 -10.890625 9.328125 -9.828125 C 9.546875 -8.773438 9.953125 -8.25 10.546875 -8.25 C 11.128906 -8.25 11.535156 -8.773438 11.765625 -9.828125 C 11.992188 -10.890625 12.101562 -12.289062 12.09375 -14.03125 C 12.070312 -16.019531 11.953125 -17.570312 11.734375 -18.6875 C 11.523438 -19.800781 11.128906 -20.359375 10.546875 -20.359375 Z M 10.546875 -20.359375 "/></g></g></g><g fill="#000000" fill-opacity="1"><g transform="translate(252.449253, 32.807216)"><g><path d="M 0.421875 -28.640625 L 9.015625 -28.640625 L 9.015625 -11.40625 C 9.015625 -10.351562 9.070312 -9.546875 9.1875 -8.984375 C 9.300781 -8.429688 9.609375 -8.164062 10.109375 -8.1875 C 10.609375 -8.1875 10.914062 -8.457031 11.03125 -9 C 11.144531 -9.550781 11.203125 -10.351562 11.203125 -11.40625 L 11.203125 -28.640625 L 19.796875 -28.640625 L 19.796875 -7.671875 C 19.796875 -6.128906 19.4375 -4.742188 18.71875 -3.515625 C 18 -2.296875 16.921875 -1.332031 15.484375 -0.625 C 14.054688 0.0703125 12.242188 0.421875 10.046875 0.421875 C 7.910156 0.421875 6.125 0.0703125 4.6875 -0.625 C 3.257812 -1.332031 2.191406 -2.296875 1.484375 -3.515625 C 0.773438 -4.742188 0.421875 -6.128906 0.421875 -7.671875 Z M 0.421875 -28.640625 "/></g></g></g><g fill="#000000" fill-opacity="1"><g transform="translate(280.593675, 32.807216)"><g><path d="M 7.15625 -10 C 7.15625 -10.457031 6.992188 -10.894531 6.671875 -11.3125 C 6.347656 -11.726562 5.929688 -12.160156 5.421875 -12.609375 C 4.921875 -13.066406 4.378906 -13.554688 3.796875 -14.078125 C 3.210938 -14.597656 2.664062 -15.195312 2.15625 -15.875 C 1.65625 -16.550781 1.238281 -17.335938 0.90625 -18.234375 C 0.582031 -19.140625 0.421875 -20.175781 0.421875 -21.34375 C 0.421875 -22.945312 0.734375 -24.285156 1.359375 -25.359375 C 1.992188 -26.441406 2.8125 -27.257812 3.8125 -27.8125 C 4.820312 -28.363281 5.878906 -28.640625 6.984375 -28.640625 L 15.78125 -28.640625 L 15.78125 -20.046875 L 13.484375 -20.046875 C 13.109375 -20.046875 12.707031 -20.023438 12.28125 -19.984375 C 11.863281 -19.953125 11.507812 -19.828125 11.21875 -19.609375 C 10.9375 -19.398438 10.796875 -19.03125 10.796875 -18.5 C 10.796875 -18.039062 10.945312 -17.644531 11.25 -17.3125 C 11.5625 -16.976562 11.957031 -16.648438 12.4375 -16.328125 C 12.925781 -16.015625 13.441406 -15.65625 13.984375 -15.25 C 14.535156 -14.851562 15.050781 -14.367188 15.53125 -13.796875 C 16.019531 -13.234375 16.414062 -12.519531 16.71875 -11.65625 C 17.03125 -10.800781 17.1875 -9.742188 17.1875 -8.484375 C 17.1875 -6.835938 16.867188 -5.375 16.234375 -4.09375 C 15.609375 -2.8125 14.710938 -1.804688 13.546875 -1.078125 C 12.378906 -0.359375 10.992188 0 9.390625 0 L 0.828125 0 L 0.828125 -8.59375 L 4.125 -8.59375 C 5.132812 -8.59375 5.890625 -8.691406 6.390625 -8.890625 C 6.898438 -9.085938 7.15625 -9.457031 7.15625 -10 Z M 7.15625 -10 "/></g></g></g><g fill="#000000" fill-opacity="1"><g transform="translate(306.133032, 32.807216)"><g><path d="M 17.40625 0 L 0.421875 0 L 0.421875 -28.609375 L 17.40625 -28.609375 L 17.40625 -20.015625 L 9.015625 -20.015625 L 9.015625 -18.59375 L 15.6875 -18.59375 L 15.6875 -10 L 9.015625 -10 L 9.015625 -8.59375 L 17.40625 -8.59375 Z M 17.40625 0 "/></g></g></g></g></g></svg>